<?xml version="1.0" encoding="UTF-8" standalone="no"?>
<!DOCTYPE svg PUBLIC "-//W3C//DTD SVG 1.1//EN"
 "http://www.w3.org/Graphics/SVG/1.1/DTD/svg11.dtd">
<!-- Generated by graphviz version 2.40.1 (20161225.0304)
 -->
<!-- Title: Missions Pages: 1 -->
<svg width="416pt" height="585pt"
 viewBox="0.00 0.00 416.00 585.24" xmlns="http://www.w3.org/2000/svg" xmlns:xlink="http://www.w3.org/1999/xlink">
<g id="graph0" class="graph" transform="scale(1 1) rotate(0) translate(4 581.2387)">
<title>Missions</title>
<polygon fill="#ffffff" stroke="transparent" points="-4,4 -4,-581.2387 412,-581.2387 412,4 -4,4"/>
<g id="clust1" class="cluster">
<title>cluster_1</title>
<polygon fill="none" stroke="#000000" points="8,-8 8,-569.2387 400,-569.2387 400,-8 8,-8"/>
<text text-anchor="middle" x="204" y="-552.6387" font-family="Times,serif" font-size="14.00" fill="#000000">任務:1</text>
</g>
<!-- 2a09eb6907672291483c49bd6bb1af2a -->
<g id="node1" class="node">
<title>2a09eb6907672291483c49bd6bb1af2a</title>
<ellipse fill="none" stroke="#ff0000" cx="173" cy="-491.1838" rx="74.4932" ry="45.011"/>
<g id="a_node1_68"><a xlink:href="https://digitalbookwikipedia.alwaysdata.net/books/f8c1f/page/a597e-CeB" xlink:title="&lt;TABLE&gt;">
<text text-anchor="start" x="149" y="-486.5838" font-family="Times,serif" font-size="14.00" fill="#000000">朱彞哲</text>
</a>
</g>
</g>
<!-- ef37b0f0cd2b2adf07c206db9126235b -->
<g id="node2" class="node">
<title>ef37b0f0cd2b2adf07c206db9126235b</title>
<ellipse fill="none" stroke="#ff0000" cx="114" cy="-347.8742" rx="98.0761" ry="45.011"/>
<g id="a_node2_69"><a xlink:href="https://digitalbookwikipedia.alwaysdata.net/books/f8c1f/page/33" xlink:title="&lt;TABLE&gt;">
<text text-anchor="start" x="72.6967" y="-343.2742" font-family="Times,serif" font-size="14.00" fill="#000000">項氏（33）</text>
</a>
</g>
</g>
<!-- 2a09eb6907672291483c49bd6bb1af2a&#45;&gt;ef37b0f0cd2b2adf07c206db9126235b -->
<g id="edge1" class="edge">
<title>2a09eb6907672291483c49bd6bb1af2a&#45;&gt;ef37b0f0cd2b2adf07c206db9126235b</title>
<path fill="none" stroke="#000000" d="M128.1519,-455.011C120.9527,-446.9198 114.5469,-437.7827 110.5,-427.929 107.3438,-420.244 105.8505,-411.7881 105.4162,-403.339"/>
<polygon fill="#000000" stroke="#000000" points="108.9152,-403.0732 105.371,-393.0888 101.9152,-403.1042 108.9152,-403.0732"/>
<text text-anchor="middle" x="118.75" y="-415.329" font-family="Times,serif" font-size="14.00" fill="#000000">妻</text>
</g>
<!-- c9ef2ba87d7a40839e33c1eeddf05a62 -->
<g id="node3" class="node">
<title>c9ef2ba87d7a40839e33c1eeddf05a62</title>
<ellipse fill="none" stroke="#ff0000" cx="313" cy="-347.8742" rx="64.1938" ry="45.011"/>
<g id="a_node3_70"><a xlink:href="https://digitalbookwikipedia.alwaysdata.net/books/f8c1f/page/8d5e9-kky" xlink:title="&lt;TABLE&gt;">
<text text-anchor="start" x="295.7914" y="-343.2742" font-family="Times,serif" font-size="14.00" fill="#000000">朱德機</text>
</a>
</g>
</g>
<!-- 2a09eb6907672291483c49bd6bb1af2a&#45;&gt;c9ef2ba87d7a40839e33c1eeddf05a62 -->
<g id="edge2" class="edge">
<title>2a09eb6907672291483c49bd6bb1af2a&#45;&gt;c9ef2ba87d7a40839e33c1eeddf05a62</title>
<path fill="none" stroke="#000000" d="M211.2556,-452.0238C229.1237,-433.7334 250.4928,-411.8591 269.0245,-392.8893"/>
<polygon fill="#000000" stroke="#000000" points="271.7551,-395.1027 276.2395,-385.5037 266.7479,-390.2111 271.7551,-395.1027"/>
<text text-anchor="middle" x="252.8303" y="-415.329" font-family="Times,serif" font-size="14.00" fill="#000000">子</text>
</g>
<!-- ef37b0f0cd2b2adf07c206db9126235b&#45;&gt;2a09eb6907672291483c49bd6bb1af2a -->
<g id="edge3" class="edge">
<title>ef37b0f0cd2b2adf07c206db9126235b&#45;&gt;2a09eb6907672291483c49bd6bb1af2a</title>
<path fill="none" stroke="#000000" d="M132.4284,-392.6364C138.2803,-406.8506 144.8121,-422.7162 150.8955,-437.4924"/>
<polygon fill="#000000" stroke="#000000" points="147.7732,-439.1023 154.8166,-447.0169 154.2461,-436.4374 147.7732,-439.1023"/>
<text text-anchor="middle" x="151.4183" y="-415.329" font-family="Times,serif" font-size="14.00" fill="#000000">夫</text>
</g>
<!-- e522573ff19ccea39fb7ad29745dde62 -->
<g id="node4" class="node">
<title>e522573ff19ccea39fb7ad29745dde62</title>
<ellipse fill="none" stroke="#ff0000" cx="267" cy="-204.5645" rx="70.922" ry="45.011"/>
<g id="a_node4_71"><a xlink:href="https://digitalbookwikipedia.alwaysdata.net/books/f8c1f/page/cee63-4Tw" xlink:title="&lt;TABLE&gt;">
<text text-anchor="start" x="244.6434" y="-199.9645" font-family="Times,serif" font-size="14.00" fill="#000000">朱丕襄</text>
</a>
</g>
</g>
<!-- c9ef2ba87d7a40839e33c1eeddf05a62&#45;&gt;e522573ff19ccea39fb7ad29745dde62 -->
<g id="edge4" class="edge">
<title>c9ef2ba87d7a40839e33c1eeddf05a62&#45;&gt;e522573ff19ccea39fb7ad29745dde62</title>
<path fill="none" stroke="#000000" d="M298.8231,-303.7072C294.2756,-289.5398 289.1857,-273.6825 284.4332,-258.8764"/>
<polygon fill="#000000" stroke="#000000" points="287.7568,-257.7786 281.3679,-249.3268 281.0917,-259.918 287.7568,-257.7786"/>
<text text-anchor="middle" x="296.8303" y="-272.0193" font-family="Times,serif" font-size="14.00" fill="#000000">子</text>
</g>
<!-- 4329473bd158fb3a00e1af4d2946485e -->
<g id="node5" class="node">
<title>4329473bd158fb3a00e1af4d2946485e</title>
<ellipse fill="none" stroke="#ff0000" cx="112" cy="-61.2548" rx="96.3333" ry="45.011"/>
<g id="a_node5_72"><a xlink:href="https://digitalbookwikipedia.alwaysdata.net/books/f8c1f/page/63" xlink:title="&lt;TABLE&gt;">
<text text-anchor="start" x="71.75" y="-56.6548" font-family="Times,serif" font-size="14.00" fill="#000000">沈氏（63）</text>
</a>
</g>
</g>
<!-- e522573ff19ccea39fb7ad29745dde62&#45;&gt;4329473bd158fb3a00e1af4d2946485e -->
<g id="edge5" class="edge">
<title>e522573ff19ccea39fb7ad29745dde62&#45;&gt;4329473bd158fb3a00e1af4d2946485e</title>
<path fill="none" stroke="#000000" d="M212.1356,-175.6776C196.4218,-165.9635 179.928,-154.2633 166.5,-141.3097 157.9917,-133.1019 150.0458,-123.3637 142.9953,-113.5549"/>
<polygon fill="#000000" stroke="#000000" points="145.8662,-111.5529 137.2907,-105.331 140.1145,-115.5426 145.8662,-111.5529"/>
<text text-anchor="middle" x="174.75" y="-128.7097" font-family="Times,serif" font-size="14.00" fill="#000000">妻</text>
</g>
<!-- 72e8eaf80969ca44b7abea6896f6cdb6 -->
<g id="node6" class="node">
<title>72e8eaf80969ca44b7abea6896f6cdb6</title>
<ellipse fill="none" stroke="#ff0000" cx="318" cy="-61.2548" rx="74.4932" ry="45.011"/>
<g id="a_node6_73"><a xlink:href="https://digitalbookwikipedia.alwaysdata.net/books/f8c1f/page/9c838-m1n" xlink:title="&lt;TABLE&gt;">
<text text-anchor="start" x="293.8054" y="-56.6548" font-family="Times,serif" font-size="14.00" fill="#000000">朱振飛</text>
</a>
</g>
</g>
<!-- e522573ff19ccea39fb7ad29745dde62&#45;&gt;72e8eaf80969ca44b7abea6896f6cdb6 -->
<g id="edge6" class="edge">
<title>e522573ff19ccea39fb7ad29745dde62&#45;&gt;72e8eaf80969ca44b7abea6896f6cdb6</title>
<path fill="none" stroke="#000000" d="M282.7178,-160.3975C287.8076,-146.0952 293.5103,-130.0707 298.8223,-115.144"/>
<polygon fill="#000000" stroke="#000000" points="302.1909,-116.1174 302.2463,-105.5227 295.596,-113.7704 302.1909,-116.1174"/>
<text text-anchor="middle" x="299.8303" y="-128.7097" font-family="Times,serif" font-size="14.00" fill="#000000">子</text>
</g>
<!-- 4329473bd158fb3a00e1af4d2946485e&#45;&gt;e522573ff19ccea39fb7ad29745dde62 -->
<g id="edge7" class="edge">
<title>4329473bd158fb3a00e1af4d2946485e&#45;&gt;e522573ff19ccea39fb7ad29745dde62</title>
<path fill="none" stroke="#000000" d="M161.1622,-100.2732C170.5635,-108.1158 180.2093,-116.4336 189,-124.5097 200.4876,-135.0634 212.4522,-146.8832 223.4613,-158.1332"/>
<polygon fill="#000000" stroke="#000000" points="221.0653,-160.6899 230.5433,-165.4248 226.0867,-155.8128 221.0653,-160.6899"/>
<text text-anchor="middle" x="210.4183" y="-128.7097" font-family="Times,serif" font-size="14.00" fill="#000000">夫</text>
</g>
</g>
</svg>
